<?xml version="1.0" encoding="UTF-8"?>
<svg xmlns="http://www.w3.org/2000/svg" xmlns:xlink="http://www.w3.org/1999/xlink" viewBox="0 0 30 30" width="30px" height="30px">
<g id="surface643973">
<path style=" stroke:none;fill-rule:nonzero;fill:rgb(100%,100%,100%);fill-opacity:1;" d="M 13.625 2.625 C 7.875 3.25 3.25 7.875 2.625 13.5 C 1.875 19.75 5.75 25.125 11.25 26.875 L 11.25 24 C 11.25 24 10.75 24.125 10.125 24.125 C 8.375 24.125 7.625 22.625 7.5 21.75 C 7.375 21.25 7.125 20.875 6.75 20.5 C 6.375 20.375 6.25 20.375 6.25 20.25 C 6.25 20 6.625 20 6.75 20 C 7.5 20 8.125 20.875 8.375 21.25 C 9 22.25 9.75 22.5 10.125 22.5 C 10.625 22.5 11 22.375 11.25 22.25 C 11.375 21.375 11.75 20.5 12.5 20 C 9.625 19.375 7.5 17.75 7.5 15 C 7.5 13.625 8.125 12.25 9 11.25 C 8.875 11 8.75 10.375 8.75 9.5 C 8.75 9 8.75 8.25 9.125 7.5 C 9.125 7.5 10.875 7.5 12.625 9.125 C 13.25 8.875 14.125 8.75 15 8.75 C 15.875 8.75 16.75 8.875 17.5 9.125 C 19.125 7.5 21 7.5 21 7.5 C 21.25 8.25 21.25 9 21.25 9.5 C 21.25 10.5 21.125 11 21 11.25 C 21.875 12.25 22.5 13.5 22.5 15 C 22.5 17.75 20.375 19.375 17.5 20 C 18.25 20.625 18.75 21.75 18.75 22.875 L 18.75 27 C 23.875 25.375 27.5 20.625 27.5 15.125 C 27.5 7.625 21.125 1.75 13.625 2.625 Z M 13.625 2.625 "/>
</g>
</svg>
